<svg width="512" height="512" viewBox="0 0 512 512" xmlns="http://www.w3.org/2000/svg">
  <!-- Background circle -->
  <circle cx="256" cy="256" r="256" fill="#005A9C"/>
  
  <!-- Badge/Shield shape -->
  <path d="M256 64 L376 104 L376 256 C376 352 256 432 256 432 C256 432 136 352 136 256 L136 104 Z" fill="#ffffff" stroke="#005A9C" stroke-width="4"/>
  
  <!-- Calendar icon -->
  <rect x="196" y="160" width="120" height="96" rx="8" fill="#005A9C"/>
  <rect x="204" y="168" width="104" height="80" rx="4" fill="#ffffff"/>
  
  <!-- Calendar lines -->
  <line x1="212" y1="184" x2="300" y2="184" stroke="#005A9C" stroke-width="2"/>
  <line x1="212" y1="200" x2="300" y2="200" stroke="#005A9C" stroke-width="2"/>
  <line x1="212" y1="216" x2="300" y2="216" stroke="#005A9C" stroke-width="2"/>
  <line x1="212" y1="232" x2="284" y2="232" stroke="#005A9C" stroke-width="2"/>
  
  <!-- Calendar header -->
  <rect x="196" y="144" width="120" height="24" rx="8" fill="#005A9C"/>
  <circle cx="212" cy="156" r="2" fill="#ffffff"/>
  <circle cx="300" cy="156" r="2" fill="#ffffff"/>
  
  <!-- Clock icon -->
  <circle cx="256" cy="320" r="32" fill="#ffffff" stroke="#005A9C" stroke-width="3"/>
  <line x1="256" y1="296" x2="256" y2="320" stroke="#005A9C" stroke-width="2"/>
  <line x1="256" y1="320" x2="272" y2="320" stroke="#005A9C" stroke-width="2"/>
  
  <!-- Text "P.L." -->
  <text x="256" y="400" font-family="Arial, sans-serif" font-size="32" font-weight="bold" fill="#ffffff" text-anchor="middle">P.L.</text>
</svg>